<?xml version="1.0" encoding="utf-8"?>
<!-- Generator: Adobe Illustrator 16.0.3, SVG Export Plug-In . SVG Version: 6.00 Build 0)  -->
<!DOCTYPE svg PUBLIC "-//W3C//DTD SVG 1.1//EN" "http://www.w3.org/Graphics/SVG/1.1/DTD/svg11.dtd">
<svg version="1.1" id="Layer_1" xmlns="http://www.w3.org/2000/svg" xmlns:xlink="http://www.w3.org/1999/xlink" x="0px" y="0px"
	 width="140px" height="140px" viewBox="0 0 140 140" enable-background="new 0 0 140 140" xml:space="preserve">
<path fill="#FFFFFF" d="M109.898,9.998l-0.041-0.537l-0.456-0.283c-0.483-0.299-12.139-7.33-38.771-7.33h-1.073
	c-26.63,0-38.287,7.03-38.77,7.33l-0.457,0.283l-0.04,0.537c-0.006,0.076-0.552,7.746,0.194,17.759
	c0.691,9.27,2.663,22.52,8.134,33.005c10.248,19.643,30.684,33.42,30.889,33.557l0.585,0.391l0.585-0.391
	c0.206-0.137,20.642-13.914,30.889-33.557c5.472-10.485,7.443-23.736,8.135-33.005C110.449,17.744,109.903,10.074,109.898,9.998z"/>
<g>
	<g>
		<path fill="#ED008C" d="M76.522,67.393c0.022,0,0.047-0.002,0.069-0.008c0.239-0.057,0.486-0.108,0.73-0.156
			c0.167-0.032,0.276-0.196,0.244-0.367c-0.032-0.17-0.193-0.281-0.359-0.249c-0.252,0.05-0.505,0.104-0.752,0.16
			c-0.165,0.04-0.27,0.208-0.231,0.376C76.257,67.294,76.384,67.393,76.522,67.393z M74.608,66.02c0.031,0,0.065-0.005,0.097-0.016
			c0.398-0.136,0.802-0.264,1.201-0.38c0.162-0.047,0.257-0.221,0.211-0.388c-0.046-0.166-0.216-0.263-0.378-0.216
			c-0.409,0.119-0.823,0.25-1.229,0.389c-0.161,0.055-0.247,0.233-0.193,0.396C74.361,65.938,74.479,66.02,74.608,66.02z
			 M76.786,65.376c0.023,0,0.049-0.003,0.072-0.01c0.544-0.133,1.085-0.247,1.609-0.337c0.168-0.028,0.281-0.19,0.252-0.36
			c-0.027-0.17-0.186-0.285-0.353-0.258c-0.538,0.093-1.094,0.209-1.654,0.347c-0.163,0.041-0.266,0.211-0.226,0.379
			C76.522,65.28,76.647,65.376,76.786,65.376z M82.176,66.805l0.125,0.001c0.003,0,0.005,0,0.006,0c0.166,0,0.304-0.137,0.306-0.31
			c0.004-0.173-0.132-0.314-0.303-0.316l-0.129-0.003c0,0-0.001,0-0.002,0c-0.169,0-0.305,0.14-0.308,0.311
			C81.87,66.661,82.006,66.802,82.176,66.805z M74.503,67.982c0.034,0,0.067-0.005,0.101-0.018c0.102-0.035,0.208-0.072,0.316-0.109
			c0.16-0.054,0.248-0.23,0.196-0.395c-0.052-0.165-0.226-0.254-0.388-0.201c-0.113,0.038-0.223,0.076-0.327,0.114
			c-0.161,0.058-0.243,0.236-0.188,0.399C74.258,67.902,74.376,67.982,74.503,67.982z M78.476,66.404
			c-0.167,0.021-0.287,0.179-0.263,0.352c0.02,0.157,0.15,0.271,0.303,0.271c0.014,0,0.027-0.001,0.04-0.003l0.195-0.026
			c0.168-0.021,0.287-0.178,0.267-0.349c-0.021-0.173-0.177-0.294-0.342-0.272C78.607,66.386,78.542,66.395,78.476,66.404z
			 M79.953,64.833c0.008,0,0.018,0,0.027,0c0.453-0.04,0.899-0.063,1.33-0.063c0.168-0.001,0.306-0.141,0.305-0.314
			c0-0.173-0.138-0.313-0.306-0.313c-0.001,0-0.001,0-0.002,0c-0.445,0.001-0.911,0.024-1.382,0.065
			c-0.168,0.015-0.293,0.167-0.277,0.34C79.661,64.71,79.795,64.833,79.953,64.833z M73.429,66.455c0.037,0,0.075-0.007,0.11-0.021
			c0.061-0.024,0.122-0.049,0.186-0.073c0.159-0.062,0.239-0.243,0.179-0.404c-0.059-0.162-0.235-0.243-0.396-0.182
			c-0.064,0.025-0.129,0.05-0.189,0.074c-0.158,0.063-0.238,0.244-0.175,0.405C73.19,66.379,73.307,66.455,73.429,66.455z
			 M81.353,66.182L81.2,66.185c-0.171,0.005-0.306,0.148-0.301,0.321c0.004,0.171,0.141,0.306,0.307,0.306c0.003,0,0.006,0,0.008,0
			l0.151-0.003c0.17-0.004,0.304-0.146,0.301-0.32C81.663,66.316,81.522,66.174,81.353,66.182z M79.874,66.881
			c0.009,0,0.017,0,0.024,0c0.101-0.008,0.201-0.016,0.305-0.022c0.169-0.011,0.296-0.16,0.285-0.333s-0.158-0.305-0.326-0.293
			c-0.104,0.008-0.207,0.016-0.31,0.022c-0.17,0.014-0.297,0.164-0.283,0.338C79.582,66.757,79.716,66.881,79.874,66.881z
			 M73.627,67.676c-0.086,0.037-0.168,0.071-0.244,0.105c-0.154,0.069-0.226,0.255-0.156,0.413c0.051,0.117,0.162,0.188,0.28,0.188
			c0.04,0,0.083-0.009,0.124-0.026c0.071-0.032,0.148-0.065,0.23-0.102c0.158-0.066,0.231-0.25,0.166-0.409
			C73.964,67.686,73.783,67.609,73.627,67.676z M60.867,47.115c-0.47,0.222-0.391,0.927-0.183,1.476
			c0.214,0.56,0.588,1.241,0.836,1.188c0.247-0.052,0.091-0.418-0.014-0.666c-0.104-0.249-0.496-1.006-0.222-1.11
			c0.275-0.104,0.405,0.483,0.445,1.005c0.039,0.523,0.144,0.692,0.404,0.588c0.271-0.108,0.092-1.071,0-1.437
			C62.042,47.794,61.701,46.722,60.867,47.115z M75.342,46.606c0.803,0,1.346,0.217,1.526-0.02c0.195-0.255-0.235-0.667-1.684-0.667
			c-1.842,0-4.138,0.896-3.899,1.273C71.522,47.565,73.343,46.606,75.342,46.606z M15.07,20.469
			c0.159,0.317,0.279,0.661,0.337,1.051c0.07,0.463,0.035,0.89-0.068,1.289l3.199-2.844l-1.594,3.839
			c0.346,0.006,0.665,0.056,0.959,0.131c4.083-3.498,3.273-8.384,3.273-8.384C17.548,16.372,15.858,18.569,15.07,20.469z
			 M76.15,47.494c-0.065-0.013-0.195-0.144-0.3-0.326c-0.105-0.183-0.313-0.288-0.471-0.17c-0.156,0.117-0.34,0.17-0.47,0.144
			c-0.132-0.026-0.235,0.104-0.392,0.026c-0.156-0.079-0.248-0.235-0.392-0.131s-0.195,0.235-0.483,0.261
			c-0.287,0.026-0.862-0.143-0.979,0.014c-0.117,0.156-0.273,0.417-0.444,0.483c-0.169,0.065-0.927,0.496-0.927,1.488
			s0.607,0.646,0.855,0.594s0.333,0.372,1.182,0.372s1.619-0.444,2.024-0.666c0.404-0.222,1.278-0.927,1.278-1.515
			C76.633,47.533,76.216,47.507,76.15,47.494z M72.063,49.368c-0.058-0.018-0.116-0.064-0.128-0.093
			c-0.008-0.018-0.04-0.055,0.005-0.182c0.064-0.186,0.225-0.453,0.597-0.653c-0.053,0.127-0.082,0.266-0.082,0.412
			c0,0.247,0.086,0.472,0.227,0.653C72.482,49.477,72.277,49.437,72.063,49.368z M74.486,49.27c0.055-0.128,0.084-0.27,0.084-0.417
			c0-0.253-0.09-0.483-0.235-0.667c0.392,0.031,0.844,0.1,1.371,0.222C75.706,48.408,75.267,48.933,74.486,49.27z M17.311,33.573
			l0.405-0.214c0.519-0.281,1.208-0.761,1.252-0.795c0.029-0.038,0.121-0.078,0.218-0.078c0.187,0,0.34,0.139,0.35,0.316
			c0.006,0.012,0.043,0.103,0.098,0.232c0.069-2.146-0.375-3.685-0.375-3.685c-6.278,1.714-5.827,8.39-5.728,9.357
			c0.025,0.019,0.05,0.039,0.075,0.058l0.439-0.456c-0.087-0.828,0.018-1.674,0.503-2.502
			C15.208,34.679,16.229,34.142,17.311,33.573z M72.636,68.156c-0.145,0.088-0.192,0.281-0.106,0.43
			c0.058,0.099,0.159,0.154,0.265,0.154c0.052,0,0.106-0.015,0.155-0.045c0.003-0.001,0.026-0.015,0.069-0.04
			c0.149-0.082,0.205-0.272,0.125-0.424c-0.083-0.153-0.269-0.209-0.417-0.126C72.666,68.138,72.636,68.156,72.636,68.156z
			 M72.513,66.847c0.043,0,0.087-0.01,0.128-0.03c0.003,0,0.037-0.017,0.103-0.046c0.154-0.07,0.226-0.256,0.156-0.413
			c-0.069-0.158-0.251-0.23-0.407-0.159c-0.071,0.032-0.109,0.051-0.109,0.051c-0.154,0.072-0.221,0.259-0.149,0.415
			C72.285,66.778,72.396,66.847,72.513,66.847z M14.985,10.063l-0.228,6.3c5.19-6.561,2.313-11.958,2.313-11.958
			c-6.503,2.435-5.226,10.739-5.226,10.739L14.985,10.063z M8.067,43.046l-3.18-5.811l4.312,3.031
			c-0.432-0.751-0.894-1.161-1.267-1.435l-0.107-0.075c-0.232-0.16-0.4-0.276-0.398-0.486c0.01-0.198,0.293-0.4,0.702-0.564
			c-3.298-4.867-6.7-5.582-6.7-5.582C2.124,42.077,8.067,43.046,8.067,43.046z M6.554,22.941l-0.626-2.279l2.081,2.433
			c0.051,0.015,0.104,0.021,0.156,0.038l0.108,0.034c0.392,0.125,0.813,0.267,1.243,0.519c-1.377-6.756-5.832-8.475-5.832-8.475
			c-0.952,3.991-0.264,6.686,0.781,8.447C4.88,23.361,5.626,23.008,6.554,22.941z M11.021,24.968l0.086,0.126
			c0.386,0.587,0.481,1.074,0.5,1.209c0.019,0.13-0.06,0.256-0.186,0.293c-0.125,0.036-0.259-0.021-0.314-0.141
			c-0.257-0.56-0.528-1.017-0.829-1.397c-0.728-0.931-1.459-1.164-2.167-1.39l-0.11-0.036c-0.374-0.122-0.759-0.184-1.145-0.184
			c-1.015,0-1.795,0.416-2.129,0.664l0.08,0.034c0.438,0.197,1.091,0.561,1.751,1.452c0.491,0.656,0.599,1.298,0.693,1.864
			c0.063,0.373,0.122,0.724,0.278,1.066c0.49,1.069,1.132,1.276,1.875,1.516c0.392,0.127,0.798,0.258,1.204,0.519
			c0.373,0.241,0.693,0.82,0.882,1.23c0.258-0.37,0.675-0.887,1.079-1.058c0.447-0.188,0.87-0.246,1.279-0.303
			c0.773-0.107,1.441-0.2,2.11-1.167c0.213-0.31,0.333-0.647,0.459-1.003c0.191-0.541,0.407-1.154,1.003-1.715
			c0.811-0.766,1.518-1.008,1.978-1.125l0.087-0.021c-0.348-0.369-1.3-1.079-2.613-1.079c-0.175,0-0.352,0.013-0.527,0.038
			l-0.114,0.015c-0.737,0.099-1.5,0.202-2.38,0.992c-0.362,0.324-0.708,0.727-1.057,1.233c-0.047,0.069-0.125,0.111-0.209,0.114
			c-0.081-0.002-0.164-0.036-0.215-0.102c-0.226-0.291,0.513-1.197,0.659-1.351l0.117-0.119c0.054-0.054,0.108-0.109,0.163-0.167
			c0.915-0.949,1.789-1.99,1.579-3.379c-0.14-0.934-0.691-1.58-1.329-2.328l-0.247-0.292c-0.203-0.242-0.465-0.609-0.628-0.854
			c-0.2,0.208-0.509,0.518-0.762,0.732l-0.291,0.242c-0.759,0.627-1.415,1.168-1.714,2.065c-0.449,1.334,0.231,2.51,0.967,3.601
			C10.93,24.838,10.976,24.903,11.021,24.968z M78.057,49.596c0.262,0.104,0.365-0.065,0.405-0.588
			c0.039-0.522,0.17-1.11,0.444-1.005c0.273,0.104-0.117,0.862-0.224,1.11c-0.104,0.248-0.261,0.614-0.012,0.666
			c0.248,0.053,0.621-0.628,0.835-1.188c0.21-0.549,0.288-1.254-0.182-1.476c-0.834-0.393-1.176,0.68-1.268,1.045
			C77.966,48.525,77.786,49.488,78.057,49.596z M127.575,48.05c0.036-0.176,0.072-0.354,0.107-0.529
			c0.313-1.34,0.464-2.686,0.634-3.999c0.003-0.024,0.007-0.049,0.01-0.074c-0.181-0.153-0.374-0.275-0.579-0.394
			c-0.078-0.044-0.158-0.092-0.238-0.141c-0.025,0.165-0.051,0.33-0.074,0.496c-0.14,0.913-0.271,1.842-0.453,2.773
			c0.153,0.874-0.001,1.726-0.295,2.551C126.979,48.448,127.278,48.23,127.575,48.05z M129.244,44.096
			c0.245-0.22,0.584-0.473,0.881-0.531c0.3-0.058,0.649-0.049,0.981-0.025c0.136,0.009,0.27,0.019,0.404,0.019c0,0,0,0,0.001,0
			c0.355,0,0.75-0.063,1.232-0.518c0.193-0.183,0.327-0.401,0.468-0.633c0.223-0.366,0.476-0.78,1.004-1.101
			c0.674-0.413,1.208-0.497,1.564-0.517c-0.268-0.375-0.939-1.018-1.974-1.086l-0.083-0.006c-0.156-0.011-0.316-0.023-0.483-0.023
			c-0.326,0-0.772,0.042-1.333,0.364c-0.306,0.174-0.609,0.408-0.932,0.715c-0.065,0.063-0.159,0.087-0.247,0.064
			c-0.088-0.022-0.158-0.088-0.187-0.175c-0.104-0.324,0.705-0.918,0.714-0.924c0.087-0.056,0.165-0.108,0.246-0.164
			c0.785-0.531,1.555-1.132,1.611-2.128c0.041-0.67-0.25-1.207-0.588-1.829l-0.137-0.253c-0.096-0.18-0.209-0.436-0.291-0.634
			c-0.174,0.117-0.4,0.261-0.591,0.365l-0.247,0.13c-0.629,0.33-1.173,0.614-1.516,1.196c-0.505,0.86-0.2,1.788,0.154,2.665
			c0.022,0.059,0.045,0.111,0.066,0.162l0.046,0.11c0.195,0.496,0.188,0.872,0.18,0.976c-0.009,0.13-0.113,0.237-0.243,0.247
			c-0.128,0.01-0.248-0.075-0.277-0.204c-0.098-0.436-0.222-0.799-0.378-1.113c-0.372-0.758-0.852-1.032-1.317-1.296l-0.071-0.041
			c-0.407-0.235-0.852-0.354-1.321-0.354c-0.388,0-0.711,0.083-0.92,0.16c0.289,0.22,0.683,0.589,1.008,1.297
			c0.258,0.559,0.238,1.044,0.221,1.473c-0.011,0.271-0.021,0.528,0.037,0.788c0.184,0.812,0.579,1.039,1.082,1.326
			c0.266,0.152,0.541,0.31,0.8,0.565C129.024,43.377,129.164,43.776,129.244,44.096z M132.051,67.154c0,0-3.319-1.009-7.375,1.868
			c0.962,0.372,1.643,0.952,1.891,1.299c0.077,0.106,0.157,0.248,0.106,0.4c-0.054,0.197-0.262,0.251-0.525,0.319l-0.151,0.04
			c-0.536,0.15-1.263,0.434-2.117,1.285c-0.002,0.002-0.003,0.003-0.005,0.006l3.56-1.396l-4.959,5.75
			C122.475,76.727,129.901,77.197,132.051,67.154z M128.886,26.686c-0.134-1.759-0.287-3.286-0.459-4.533
			c-0.001-0.008-0.002-0.016-0.003-0.024c-0.09-0.098-0.202-0.212-0.324-0.323c0.015,0.131,0.028,0.264,0.042,0.402
			c0.136,1.247,0.245,2.774,0.329,4.527c0.044,1.758,0.114,3.737,0.004,5.906c-0.003,1.522-0.144,3.135-0.298,4.816l0.06,0.034
			c0.209,0.119,0.429,0.253,0.646,0.422c0.117-1.857,0.229-3.626,0.186-5.289C129.113,30.438,128.982,28.449,128.886,26.686z
			 M83.101,66.828l0.086,0.004c0.006,0,0.01,0,0.015,0c0.163,0,0.299-0.13,0.308-0.298c0.006-0.173-0.125-0.319-0.294-0.328
			l-0.089-0.003c-0.173-0.01-0.312,0.127-0.319,0.3C82.801,66.675,82.932,66.821,83.101,66.828z M133.924,42.287
			c0.327-0.201,0.678-0.453,1.037-0.769c-0.146,0.061-0.3,0.136-0.471,0.24C134.237,41.911,134.067,42.093,133.924,42.287z
			 M120.588,69.047c0.163-0.336,0.324-0.667,0.487-1.004c0.634-1.31,1.303-2.608,1.771-4.007c0.703-1.865,1.446-3.712,2.072-5.588
			c-0.201-0.158-0.404-0.29-0.579-0.335c-0.189-0.05-0.376-0.078-0.562-0.098c-0.654,1.83-1.425,3.627-2.153,5.441
			c-0.261,0.714-0.578,1.399-0.915,2.073c0.033,0.119,0.065,0.239,0.087,0.366c0.243,1.363-0.236,2.47-0.952,3.455
			C120.101,69.217,120.347,69.125,120.588,69.047z M121.294,86.547c1.107-1.628,1.518-3.015,1.518-3.015
			c-5.396-1.018-8.747,0.742-10.621,2.418c0.565-0.021,1.132-0.037,1.699-0.037C116.388,85.913,118.859,86.131,121.294,86.547z
			 M116.085,72.159c-0.115,0.011-0.216-0.047-0.265-0.146c-0.334-0.684-0.683-1.237-1.063-1.69c-0.93-1.125-1.839-1.39-2.719-1.646
			l-0.129-0.037c-0.428-0.129-0.866-0.193-1.304-0.193c-1.394,0-2.432,0.636-2.801,0.953c0.018,0.008,0.035,0.015,0.052,0.021
			l0.138,0.055c0.531,0.223,1.33,0.64,2.155,1.697c0.61,0.774,0.755,1.513,0.895,2.228c0.089,0.453,0.173,0.883,0.377,1.302
			c0.643,1.309,1.442,1.545,2.368,1.817c0.479,0.142,0.974,0.287,1.472,0.59c0.478,0.292,0.902,1.05,1.135,1.537
			c0.291-0.456,0.806-1.156,1.313-1.387c0.532-0.239,1.042-0.324,1.534-0.405c0.952-0.159,1.774-0.296,2.574-1.517
			c0.255-0.391,0.391-0.807,0.533-1.248c0.224-0.691,0.455-1.405,1.156-2.099c0.952-0.947,1.796-1.265,2.348-1.42l0.161-0.042
			l0.035-0.01c-0.371-0.407-1.549-1.322-3.209-1.322c-0.254,0-0.513,0.022-0.767,0.064l-0.136,0.023
			c-0.904,0.146-1.84,0.295-2.901,1.299c-0.435,0.41-0.846,0.915-1.257,1.547c-0.054,0.08-0.146,0.12-0.239,0.119
			c-0.096-0.006-0.18-0.063-0.222-0.15c-0.111-0.236,0.342-1.035,0.793-1.539c0.113-0.121,0.221-0.236,0.335-0.361
			c1.093-1.194,2.134-2.503,1.829-4.213c-0.203-1.152-0.899-1.928-1.705-2.825l-0.311-0.347c-0.279-0.317-0.636-0.794-0.831-1.074
			c-0.225,0.25-0.623,0.671-0.951,0.964l-0.345,0.303c-0.911,0.794-1.699,1.479-2.045,2.601c-0.509,1.663,0.364,3.088,1.303,4.405
			c0.059,0.086,0.116,0.164,0.174,0.242l0.111,0.154c0.498,0.716,0.671,1.412,0.635,1.553
			C116.286,72.069,116.194,72.148,116.085,72.159z M103.787,84.989l1.85-8.981l0.792,8.024c4.047-10.192,0.143-14.396,0.143-14.396
			C99.029,77.398,103.787,84.989,103.787,84.989z M110.064,85.303c1.544-1.925,3.181-3.959,4.777-6.141
			c0.211-0.351,0.43-0.703,0.646-1.054c-0.158-0.235-0.331-0.445-0.5-0.548c-0.316-0.191-0.645-0.315-0.971-0.42
			c-0.187,0.296-0.378,0.591-0.561,0.885c-1.517,2.167-3.15,4.123-4.567,6.099c-0.592,0.865-1.257,1.621-1.921,2.342
			c0.799-0.126,1.602-0.231,2.409-0.313C109.611,85.879,109.843,85.6,110.064,85.303z M126.582,37.026
			c0.035,0,0.069,0.005,0.104,0.007c-0.135-2.374-1.076-6.406-5.752-7.684c0,0-1.907,6.566,2.772,11.496l-0.462-5.55l1.974,2.05
			C125.552,37.145,126.136,37.026,126.582,37.026z M123.732,24.98l-2.08-5.015l4.154,3.696c0,0,0.018-1.058-0.409-2.424
			c-0.466-0.103-0.938-0.338-1.438-0.875c-0.283-0.306-0.461-0.643-0.631-0.968c-0.242-0.46-0.471-0.894-0.991-1.26
			c-0.735-0.521-1.307-0.639-1.72-0.683l-0.098-0.009c-0.227-0.019-0.405-0.034-0.501-0.199c-0.087-0.165-0.009-0.334,0.079-0.48
			c0.115-0.191,0.321-0.438,0.595-0.683c-0.509-0.21-1.065-0.39-1.68-0.529C119.014,15.551,118.023,21.513,123.732,24.98z
			 M118.755,49.789l0.384-0.001c0.344,0,0.701,0.015,1.075,0.07l-0.003-0.064l0.028,0.068c0.255,0.039,0.516,0.092,0.79,0.184
			c-0.871-0.86-1.563-1.909-1.551-3.313c0.007-0.654,0.163-1.227,0.396-1.764c-0.454-0.321-0.957-0.615-1.527-0.865
			c0,0-0.881,2.563-0.7,5.807C117.993,49.835,118.361,49.789,118.755,49.789z M115.192,52.269c0.636,0.072,1.5,0.254,2.59,1.032
			c0.813,0.575,1.166,1.25,1.508,1.902c0.22,0.418,0.426,0.814,0.748,1.163c1.002,1.088,1.877,1.088,2.721,1.088h0.226
			c0.487,0,0.968,0.011,1.49,0.149c0.558,0.146,1.188,0.762,1.553,1.171c0.15-0.529,0.451-1.364,0.877-1.733
			c0.449-0.388,0.921-0.617,1.378-0.839c0.881-0.428,1.643-0.799,2.068-2.22c0.136-0.455,0.146-0.901,0.159-1.373
			c0.019-0.737,0.036-1.499,0.518-2.374c0.649-1.197,1.38-1.75,1.873-2.06l0.141-0.085c0.013-0.008,0.027-0.016,0.041-0.025
			c-0.333-0.202-1.14-0.554-2.206-0.554c-0.711,0-1.396,0.16-2.036,0.475l-0.126,0.061c-0.84,0.404-1.707,0.822-2.45,2.105
			c-0.309,0.533-0.563,1.145-0.778,1.872c-0.029,0.099-0.112,0.171-0.215,0.186c-0.106,0.015-0.204-0.032-0.259-0.118
			c-0.104-0.162-0.002-0.942,0.353-1.69l0.22-0.447c0.721-1.479,1.356-3.055,0.563-4.636c-0.531-1.063-1.435-1.617-2.48-2.258
			l-0.401-0.249c-0.361-0.227-0.851-0.593-1.122-0.811c-0.146,0.307-0.415,0.84-0.649,1.219l-0.253,0.401
			c-0.656,1.034-1.223,1.926-1.235,3.117c-0.015,1.771,1.248,2.906,2.544,3.918c0.079,0.064,0.155,0.122,0.229,0.178l0.162,0.124
			c0.669,0.536,0.962,1.063,1.036,1.212c0.058,0.118,0.022,0.263-0.086,0.337s-0.253,0.061-0.342-0.036
			c-0.521-0.565-1.02-1.003-1.523-1.34c-1.123-0.754-2.007-0.816-2.888-0.816l-0.374,0.002c-2.091,0-3.43,1.384-3.782,1.934
			c0.018,0.001,0.036,0.003,0.054,0.005L115.192,52.269z M111.957,68.11c0.034,0.01,0.068,0.013,0.103,0.023l0.127,0.038
			c0.36,0.104,0.741,0.222,1.132,0.395l0.195-1.106c-0.138-0.631-0.145-1.299,0.072-2.007c0.113-0.366,0.271-0.688,0.455-0.982
			l0.254-1.439l0.147,0.884c0.395-0.474,0.862-0.884,1.347-1.306l0.341-0.298c0.135-0.122,0.283-0.267,0.424-0.409
			c-0.478-1.608-1.336-3.348-2.776-5.15C113.777,56.752,110.204,61.977,111.957,68.11z M52.594,63.516
			c0.261-0.54,0.507-1.051,0.673-1.418l0.095-0.212c0.798-1.776,1.513-3.299,2.202-3.944c0.737-0.692,2.215-1.485,4.052-2.177
			c0.787-0.296,1.765-0.569,2.605-0.779c-0.406-0.505-0.703-0.973-0.9-1.32c-0.144-0.02-0.295-0.049-0.44-0.089
			c-0.834-0.231-1.472-0.977-1.706-1.994c-0.106-0.462-0.354-1.259-0.536-1.842c-0.106-0.341-0.195-0.627-0.237-0.781
			c-0.022-0.081-0.049-0.173-0.079-0.274c-0.004-0.016-0.01-0.035-0.015-0.052L42.153,64.79c1.536,2.458,3.201,4.8,4.934,7.008
			l4.442-4.442c-0.108-0.272-0.177-0.545-0.177-0.79C51.353,66.153,51.526,65.725,52.594,63.516z M130.438,25.133l3.825-4.471
			l-1.622,5.904c0,0,5.98-2.485,3.865-11.355C136.507,15.211,131.428,17.17,130.438,25.133z M133.337,36.026
			c0.198,0.438,0.336,0.893,0.304,1.433c-0.029,0.495-0.199,0.903-0.44,1.256l2.103-1.479l-1.092,1.998
			c0.895,0.167,1.524,0.681,1.869,1.094c1.26-1.616,2.401-4.172,2.684-8.202C138.764,32.125,136.182,32.669,133.337,36.026z
			 M131.037,52.622c-0.013,0.486-0.024,0.989-0.181,1.512c-0.493,1.643-1.435,2.101-2.344,2.543
			c-0.15,0.073-0.303,0.149-0.454,0.229c-0.155,0.475-0.217,0.773-0.217,0.773l5-3.258l-3.16,6.058
			c7.423-3.863,7.514-10.656,7.514-10.656c-2.762,0.063-4.737,1.072-6.143,2.347C131.045,52.32,131.041,52.47,131.037,52.622z
			 M120.671,16.926c0.444,0.048,1.127,0.18,1.971,0.777c0.624,0.438,0.905,0.974,1.153,1.446c0.162,0.309,0.316,0.6,0.552,0.854
			c0.677,0.729,1.232,0.786,1.942,0.786l0.262,0c0.318,0,0.691,0.008,1.084,0.111c0.396,0.103,0.831,0.501,1.118,0.808
			c0.121-0.402,0.337-0.954,0.638-1.219c0.342-0.296,0.698-0.471,1.043-0.639c0.646-0.316,1.203-0.588,1.51-1.626
			c0.1-0.332,0.106-0.661,0.114-1.009c0.012-0.533,0.025-1.138,0.391-1.809c0.493-0.914,1.047-1.332,1.422-1.567l0.04-0.024
			c-0.283-0.146-0.831-0.346-1.514-0.346c-0.525,0-1.03,0.118-1.502,0.352l-0.095,0.046c-0.618,0.3-1.257,0.609-1.801,1.554
			c-0.223,0.384-0.409,0.838-0.572,1.387c-0.027,0.098-0.11,0.17-0.211,0.186c-0.104,0.015-0.202-0.028-0.26-0.112
			c-0.113-0.167,0.009-0.815,0.253-1.334l0.165-0.336c0.528-1.095,0.995-2.259,0.412-3.411c-0.392-0.776-1.059-1.184-1.832-1.656
			l-0.307-0.188c-0.245-0.153-0.567-0.39-0.78-0.555c-0.114,0.239-0.295,0.589-0.451,0.844l-0.181,0.289
			c-0.487,0.771-0.907,1.438-0.914,2.313c-0.008,1.298,0.928,2.13,1.885,2.872c0.058,0.047,0.113,0.088,0.167,0.129l0.127,0.097
			c0.514,0.407,0.738,0.813,0.796,0.928c0.058,0.118,0.021,0.262-0.086,0.336c-0.108,0.074-0.253,0.06-0.343-0.037
			c-0.385-0.415-0.753-0.738-1.13-0.987c-0.821-0.549-1.487-0.595-2.1-0.595l-0.307,0.002c-1.437,0.001-2.388,0.885-2.711,1.332
			L120.671,16.926z M124.802,15.184c-0.578-0.616-1.013-1.363-1.009-2.342c0.008-1.027,0.488-1.787,0.996-2.591l0.178-0.285
			c0.224-0.364,0.489-0.921,0.518-0.992c0.035-0.122,0.167-0.219,0.316-0.219c0.074,0,0.176,0.047,0.235,0.105
			c-0.006-0.006-0.008-0.01-0.008-0.01c0.051,0.047,0.535,0.428,0.899,0.655l0.301,0.185c0.289,0.177,0.573,0.351,0.84,0.543
			c-0.563-2.26-1.903-4.688-4.949-5.83c0,0-2.522,4.734,1.422,10.724C124.627,15.145,124.713,15.161,124.802,15.184z M6.822,56.396
			c-0.019-0.006,0.01-0.006,0.042-0.006c0.225,0,0.679-0.014,1.007-0.051l0.327-0.042c0.042-0.005,0.081-0.009,0.121-0.015
			l-0.971-1.861l2.797,1.823c0.269,0.047,0.521,0.122,0.767,0.233c0.576,0.261,0.979,0.646,1.276,1.098l0.159,0.104
			c0,0-1.572-7.68-9.353-7.856c0,0,0.056,4.138,3.61,7.792c-0.065-0.368-0.158-0.751-0.17-0.795
			c-0.034-0.069-0.025-0.186,0.036-0.281C6.545,56.423,6.683,56.36,6.822,56.396z M88.838,66.565c0,0.603-0.335,1.365-0.965,1.903
			c0.139,0.801,0.333,2.064,0.318,2.819c-0.007,0.314-0.153,0.61-0.4,0.805c-0.188,0.149-0.42,0.229-0.655,0.229
			c-0.073,0-0.147-0.008-0.221-0.023c-0.023-0.005-1.988-0.421-4.454-0.522L64.775,89.461c3.203,2.565,5.32,3.979,5.32,3.979
			s20.299-13.537,30.539-33.166c1.79-3.431,3.201-7.165,4.321-10.993L88.589,65.647C88.788,66.126,88.838,66.35,88.838,66.565z
			 M62.49,72.102c-1.068-0.229-2.298-0.345-3.655-0.348l-6.344,6.345c2.042,2.188,4.072,4.179,5.992,5.949l9.928-9.928
			C66.856,73.489,64.215,72.472,62.49,72.102z M104.521,26.069L81.853,48.737c-0.023,0.079-0.046,0.157-0.063,0.221
			c-0.043,0.157-0.133,0.445-0.24,0.788c-0.18,0.581-0.428,1.377-0.533,1.837c-0.235,1.018-0.874,1.763-1.705,1.994
			c-0.146,0.041-0.298,0.069-0.441,0.089c-0.197,0.346-0.495,0.815-0.9,1.32c0.841,0.21,1.818,0.482,2.606,0.779
			c1.822,0.687,3.289,1.473,4.03,2.16l23.343-23.342c0.294-2.275,0.519-4.493,0.681-6.601l-0.429-0.237
			C107.652,27.441,106.438,26.819,104.521,26.069z M91.347,12.312c0.152-0.125,0.254-0.344,0.306-0.656
			c0.099-0.604-0.103-0.947-0.603-1.028l-0.364-0.06l-0.295,1.812l0.364,0.06C90.997,12.479,91.195,12.437,91.347,12.312z
			 M98.296,12.217l-0.021-0.005l-1.283,2.978l1.066,0.261L98.296,12.217z M26.191,85.927c0.611,0,1.22,0.016,1.829,0.041
			c-1.87-1.681-5.225-3.456-10.64-2.436c0,0,0.409,1.384,1.513,3.011C21.295,86.139,23.732,85.927,26.191,85.927z M67.463,68.105
			c-0.148-0.083-0.335-0.027-0.416,0.126c-0.081,0.151-0.026,0.342,0.123,0.424c0.044,0.025,0.068,0.039,0.07,0.04
			c0.05,0.03,0.104,0.045,0.157,0.045c0.104,0,0.206-0.056,0.264-0.154c0.085-0.148,0.038-0.342-0.107-0.43
			C67.554,68.156,67.524,68.138,67.463,68.105z M67.697,66.198c-0.155-0.071-0.336,0.001-0.405,0.159
			c-0.069,0.157,0.002,0.343,0.156,0.413c0.064,0.029,0.1,0.046,0.101,0.046c0.042,0.021,0.086,0.03,0.129,0.03
			c0.115,0,0.227-0.068,0.278-0.183c0.072-0.156,0.005-0.343-0.148-0.415C67.808,66.249,67.77,66.23,67.697,66.198z M79.567,39.318
			L95.516,23.37c-2.89-0.657-6.292-1.26-10.229-1.711l-9.957,9.957c-0.128,0.458-0.283,0.838-0.331,0.948
			c-0.004,0.008-0.007,0.016-0.011,0.023c1.342,0.955,2.049,2.366,2.037,4.061C77.685,37.083,78.72,37.931,79.567,39.318z
			 M34.149,76.326l0.107-0.036c0.091-0.033,0.184-0.059,0.276-0.086l0.02-0.196l0.037,0.18c0.392-0.107,0.794-0.164,1.2-0.164
			c0.661,0,1.262,0.15,1.75,0.345c-0.51-2.096-1.66-4.405-3.92-6.731c0,0-0.943,1.019-1.422,3.264
			c0.241,0.308,0.446,0.651,0.594,1.06c0.416,1.144,0.189,2.177-0.265,3.142C33.084,76.692,33.638,76.502,34.149,76.326z
			 M53.485,67.957c0,0-0.45,2.291-0.431,3.309c0,0,5.269-1.136,9.656-0.195c2.692,0.576,7.385,2.607,7.385,2.607
			s4.692-2.031,7.385-2.607c4.387-0.94,9.655,0.195,9.655,0.195c0.021-1.018-0.431-3.309-0.431-3.309
			c0.744-0.296,1.078-1.039,1.078-1.392s-1.294-2.86-1.822-4.035c-0.529-1.175-1.43-3.232-2.056-3.819
			c-0.628-0.587-2.038-1.332-3.702-1.959c-1.666-0.627-4.311-1.156-4.311-1.156c1.606-1.313,2.312-2.938,2.312-2.938
			s0.472,0,0.823-0.098c0.353-0.098,0.783-0.451,0.959-1.214c0.176-0.764,0.667-2.233,0.784-2.664
			c0.117-0.431,0.372-1.175,0.411-1.783c0.04-0.606-0.176-1.077-0.449-1.41c-0.275-0.333-0.805-0.412-0.805-0.412
			c0.158-5.941-3.996-7.848-3.996-7.848c0.235-2.001-0.648-3.289-1.946-4.033c-0.388-0.427-0.063-0.8,0.041-1.046
			c0.118-0.274,0.433-1.097,0.433-1.665s0.273-1.783-0.765-1.783c-0.627,0-0.842,0.49-1.703,1.019
			c-0.862,0.53-1.157,0.706-1.157,1.372s0.021,1.194,0.021,1.194c-2.234,0.098-3.193,1.058-3.448,1.547
			c-0.254,0.49-0.333,0.548-1.646,1.254c-1.313,0.705-1.137,1.41-1.137,1.41c-1.174,1.214-3.702,2.037-3.78,2.508
			c-0.079,0.469,0.411,0.528,0.411,0.528c-0.99,0.972-0.314,1.257-0.225,1.29c-0.485,1.104-0.814,2.502-0.768,4.253
			c0,0-0.529,0.078-0.804,0.412c-0.274,0.333-0.49,0.803-0.451,1.41c0.039,0.608,0.293,1.353,0.412,1.783
			c0.117,0.431,0.607,1.9,0.783,2.664c0.176,0.764,0.606,1.116,0.959,1.214c0.354,0.098,0.824,0.098,0.824,0.098
			s0.704,1.625,2.311,2.938c0,0-2.644,0.529-4.309,1.156s-3.076,1.372-3.702,1.959c-0.626,0.587-1.528,2.645-2.057,3.819
			c-0.529,1.175-1.822,3.683-1.822,4.035S52.741,67.661,53.485,67.957z M70.036,59.871c-4.191-0.048-5.298-2.588-4.614-3.106
			c0.686-0.519,1.793,0.816,4.674,0.835c2.88-0.019,3.989-1.354,4.673-0.835c0.684,0.518-0.422,3.058-4.613,3.106H70.036z
			 M83.968,61.728l1.602,6.974c-9.742-0.079-15.155,3.864-15.155,3.864v-7.234C76.117,61.648,83.968,61.728,83.968,61.728z
			 M71.142,39.666c0.242-0.125,0.921-0.059,2.137-0.346c1.213-0.288,1.598-1.162,1.859-1.149c0.261,0.013-0.099,1.058-0.975,1.685
			c-0.873,0.627-1.835,0.705-2.226,0.725c-0.392,0.02-1.227-0.033-1.142-0.379C70.843,40.01,70.929,39.774,71.142,39.666z
			 M69.522,39.515c0.13,0.098,0.151,0.631,0.045,0.757c-0.104,0.125-0.79,0.131-0.861,0.02c-0.072-0.111-0.006-0.216,0.248-0.483
			C69.236,39.513,69.392,39.417,69.522,39.515z M67.707,38.686c0.154-0.14,0.556-0.091,0.771-0.026
			c0.215,0.065,0.653,0.131,0.084,0.633c-0.568,0.503-0.757,0.601-0.915,0.092C67.492,38.875,67.636,38.751,67.707,38.686z
			 M66.643,37.831c0.184-0.131,0.39-0.271,0.536-0.026c0.085,0.144,0.059,0.215-0.078,0.319c-0.137,0.105-0.329,0.239-0.477,0.065
			C66.513,38.059,66.46,37.961,66.643,37.831z M65.2,36.375c0.157-0.215,0.575-0.594,0.711-0.575c0.149,0.021,0.228,0.32,0.3,0.653
			c0.072,0.333,0.027,0.601-0.104,0.732c-0.141,0.14-0.274,0.254-0.731,0.045C64.919,37.021,65.045,36.587,65.2,36.375z
			 M65.384,41.121c-0.235,0.431-0.393,0.653-0.563,0.575c-0.168-0.078-0.129-0.287-0.168-0.353c-0.04-0.065-0.236,0.118-0.366-0.091
			c-0.131-0.209,0.196-0.431,0.301-0.953s0.241-0.718,0.451-0.882c0.208-0.163,0.691-0.437,0.815-0.333
			c0.099,0.083-0.386,0.373-0.294,0.751C65.65,40.214,65.618,40.69,65.384,41.121z M63.529,38.066
			c0.694-0.319,1.866-0.144,1.879,0.104c0.013,0.249-0.431-0.026-1.423,0.562c-0.993,0.588-1.357,0.94-1.462,0.823
			C62.419,39.437,62.758,38.418,63.529,38.066z M62.105,50.484c-0.327,0-0.118,0.3-0.483,0.483c-0.366,0.183-0.68-0.731-1.228-2.247
			c-0.548-1.514-0.548-1.984-0.234-2.428c0.313-0.445,1.096,0.182,1.566,0.653c0.47,0.47,0.575,0.653,0.706,0.575
			c0.13-0.079,0.104-0.288-0.13-0.575c-0.235-0.288-0.105-0.209-0.026-1.358c0.078-1.149,0.313-1.358,0.444-1.489
			c0.065-0.065,0.144-0.091,0.206-0.307c0,0,0.317-1.508,0.773-1.416c0.457,0.091,0.091,0.588,0.549,0.588
			c0.457,0,0.73-0.444,1.383-1.084c0.654-0.64,1.02-0.823,2.129-0.536c1.11,0.287,1.28,0.327,1.28,0.327s-0.562,1.58-0.104,1.592
			c0.457,0.013,1.354-1.567,1.354-1.567c2.717,0,3.813-0.784,5.25-0.784s1.619-0.208,1.619,1.437c0,1.645,0.184,1.619,0.313,1.749
			c0.131,0.131,0.365,0.34,0.443,1.489c0.078,1.149,0.21,1.07-0.025,1.358c-0.234,0.287-0.262,0.496-0.131,0.575
			c0.131,0.078,0.234-0.104,0.705-0.575c0.471-0.471,1.254-1.098,1.567-0.653c0.313,0.444,0.313,0.914-0.235,2.428
			c-0.548,1.515-0.861,2.43-1.228,2.247c-0.365-0.183-0.156-0.483-0.482-0.483c-0.322,0-1.554,5.791-7.872,5.935h-0.238
			C63.658,56.274,62.427,50.484,62.105,50.484z M56.223,61.728c0,0,7.85-0.079,13.553,3.604v7.234c0,0-5.412-3.943-15.154-3.864
			L56.223,61.728z M66.563,67.676c-0.156-0.066-0.336,0.01-0.401,0.169c-0.064,0.159,0.009,0.343,0.166,0.409
			c0.083,0.036,0.16,0.069,0.231,0.102c0.041,0.018,0.083,0.026,0.123,0.026c0.118,0,0.231-0.07,0.281-0.188
			c0.068-0.158-0.002-0.344-0.157-0.413C66.731,67.747,66.651,67.713,66.563,67.676z M36.525,79.254
			c-0.444,0.625-0.526,1.207-0.614,1.822c-0.038,0.264-0.08,0.533-0.148,0.806l0.641,3.107c0,0,1.828-2.922,1.418-6.993
			C37.436,78.23,36.988,78.599,36.525,79.254z M68.483,95.857l1.611,1.074l1.611-1.074c0.854-0.571,21.039-14.182,31.504-34.24
			c10.688-20.487,8.625-50.488,8.532-51.755l-0.108-1.477l-1.259-0.779C109.874,7.295,97.782,0,70.631,0h-1.073
			c-27.15,0-39.243,7.295-39.743,7.606l-1.259,0.779l-0.108,1.477c-0.093,1.267-2.156,31.268,8.533,51.755
			C47.447,81.676,67.629,95.286,68.483,95.857z M30.292,9.998l0.04-0.537l0.457-0.283c0.483-0.299,12.139-7.33,38.77-7.33h1.073
			c26.632,0,38.287,7.03,38.771,7.33l0.456,0.283l0.041,0.537c0.005,0.076,0.551,7.746-0.194,17.759
			c-0.691,9.27-2.663,22.52-8.135,33.005C91.322,80.404,70.886,94.182,70.68,94.318l-0.585,0.391l-0.585-0.391
			c-0.205-0.137-20.641-13.914-30.889-33.557c-5.471-10.485-7.443-23.736-8.134-33.005C29.74,17.744,30.286,10.074,30.292,9.998z
			 M31.27,86.229c0.666,0.076,1.328,0.167,1.987,0.272c-0.432-0.47-0.863-0.95-1.277-1.469
			C31.693,85.299,31.413,85.882,31.27,86.229z M13.343,51.627c0.275,1.273,0.685,2.528,1.042,3.808
			c0.362-0.25,0.729-0.425,1.044-0.522c-0.366-1.188-0.77-2.359-1.055-3.546c-0.108-0.478-0.215-0.95-0.322-1.423
			c-0.131-0.018-0.258-0.125-0.258-0.316c-0.016-0.178-0.265-1.431-0.665-1.828c-0.21-0.208-0.439-0.373-0.673-0.521
			c0.018,0.082,0.031,0.163,0.05,0.244C12.781,48.869,13.06,50.242,13.343,51.627z M12.526,62.238
			c-0.551-0.082-1.052-0.102-1.468-0.063c-1.063,0.096-1.601,0.535-2.12,0.959l-0.078,0.064c-1.085,0.872-1.274,2.12-1.25,2.664
			l0.032-0.021c0.37-0.235,0.973-0.554,1.983-0.616c0.068-0.004,0.135-0.007,0.2-0.007c0.645,0,1.116,0.204,1.571,0.403
			c0.313,0.135,0.608,0.264,0.942,0.313c0.158,0.022,0.309,0.034,0.449,0.034c0.744,0,1.147-0.326,1.614-0.705
			c0.292-0.236,0.593-0.48,0.996-0.662c0.177-0.08,0.409-0.118,0.711-0.118c0.211,0,0.438,0.021,0.632,0.047
			c-0.152-0.382-0.324-0.934-0.256-1.317c0.079-0.437,0.244-0.788,0.404-1.13c0.298-0.635,0.556-1.185,0.155-2.161
			c-0.129-0.313-0.325-0.568-0.533-0.84c-0.318-0.414-0.679-0.884-0.811-1.621c-0.182-0.988-0.03-1.627,0.121-2.073l0.01-0.028
			c-0.538,0.112-1.685,0.555-2.281,1.843l-0.044,0.092c-0.288,0.608-0.586,1.237-0.422,2.288c0.067,0.436,0.202,0.896,0.415,1.411
			c0.033,0.081,0.024,0.172-0.024,0.246c-0.047,0.072-0.128,0.117-0.216,0.118h-0.002c-0.345,0-0.661-0.993-0.708-1.189
			l-0.017-0.075c-0.02-0.093-0.04-0.185-0.063-0.281c-0.268-1.16-0.626-2.333-1.774-2.855c-0.367-0.167-0.756-0.245-1.223-0.245
			c-0.387,0-0.784,0.052-1.204,0.107l-0.334,0.043C7.64,56.896,7.256,56.912,7,56.917c0.06,0.255,0.136,0.625,0.173,0.916
			l0.04,0.339c0.102,0.884,0.189,1.647,0.718,2.317c0.723,0.911,1.818,1.036,2.895,1.036l0.304-0.002
			c0.094-0.008,0.168-0.002,0.234-0.005l0.127-0.003c0,0,0,0,0,0c0.686,0,1.108,0.187,1.186,0.224
			c0.118,0.057,0.177,0.191,0.139,0.315C12.778,62.179,12.655,62.256,12.526,62.238z M17.717,76.727l-4.961-5.75l7.277,2.852
			C14.261,65.284,8.14,67.154,8.14,67.154C10.289,77.197,17.717,76.727,17.717,76.727z M42,14.482
			c-0.127-0.49-0.238-0.883-0.333-1.178c-0.095-0.295-0.192-0.517-0.292-0.666c-0.1-0.148-0.211-0.234-0.333-0.257
			c-0.122-0.022-0.275-0.01-0.459,0.037l-0.378,0.098l1.18,4.555l0.378-0.098c0.184-0.048,0.324-0.111,0.419-0.19
			c0.096-0.08,0.151-0.208,0.167-0.387c0.016-0.178-0.007-0.419-0.067-0.724C42.221,15.37,42.127,14.972,42,14.482z M18.564,63.456
			c-0.279-0.695-0.564-1.389-0.848-2.082c-0.076,0.339-0.212,0.641-0.351,0.935c-0.138,0.296-0.263,0.581-0.335,0.906
			c0.104,0.273,0.209,0.547,0.313,0.821c0.469,1.398,1.139,2.697,1.773,4.007c0.637,1.313,1.269,2.62,1.896,3.914
			c1.007,1.851,2.115,3.606,3.19,5.336c0.359-0.048,0.744-0.057,1.155-0.008l0.12,0.013c0.28,0.031,0.572,0.065,0.877,0.129
			c-1.301-2.06-2.698-4.138-3.991-6.333c-0.647-1.249-1.3-2.508-1.955-3.769C19.753,66.063,19.061,64.81,18.564,63.456z
			 M70.631,19.807c24.085,0,35.798,5.752,38.079,7.014c0.655-9.616,0.136-16.746,0.136-16.746S97.269,2.903,70.631,2.903
			c-0.182,0-0.89,0-1.073,0c-26.636,0-38.214,7.171-38.214,7.171s-0.519,7.13,0.136,16.746c2.279-1.261,13.992-7.014,38.078-7.014
			H70.631z M97.451,10.425l2.399,0.586l-0.007,7.753l-2.028-0.496l0.118-1.329l-1.518-0.371l-0.508,1.233l-2.029-0.496
			L97.451,10.425z M88.977,8.856l2.905,0.474c0.368,0.06,0.678,0.171,0.929,0.333c0.252,0.163,0.449,0.36,0.593,0.594
			c0.144,0.234,0.234,0.498,0.271,0.793c0.038,0.295,0.03,0.602-0.021,0.921c-0.126,0.771-0.427,1.315-0.903,1.633
			c-0.476,0.318-1.113,0.412-1.911,0.281l-0.677-0.11L89.7,16.607l-1.937-0.316L88.977,8.856z M84.375,8.331l1.95,0.211l-0.808,7.49
			l-1.951-0.211L84.375,8.331z M78.594,7.889l0.447,5.714l0.021,0.001l1.133-5.619l2.085,0.126l-2.076,7.421l-2.528-0.153
			l-1.167-7.618L78.594,7.889z M44.287,16.598c-0.066,0.376-0.226,0.706-0.48,0.985c-0.254,0.28-0.657,0.492-1.209,0.635
			l-2.757,0.714l-1.89-7.292l2.758-0.714c0.552-0.143,1.006-0.154,1.365-0.032c0.358,0.122,0.658,0.331,0.898,0.628
			c0.24,0.297,0.435,0.661,0.583,1.091c0.147,0.431,0.283,0.884,0.407,1.361s0.225,0.939,0.305,1.387
			C44.346,15.809,44.353,16.222,44.287,16.598z M51.695,15.107c-0.053,0.366-0.167,0.67-0.344,0.914
			c-0.176,0.244-0.415,0.436-0.716,0.575c-0.301,0.14-0.653,0.244-1.055,0.311c-0.41,0.069-0.777,0.086-1.104,0.052
			c-0.327-0.034-0.614-0.138-0.86-0.31c-0.247-0.172-0.455-0.422-0.624-0.751c-0.169-0.328-0.298-0.752-0.385-1.272l-0.819-4.87
			l1.936-0.325l0.901,5.358c0.061,0.361,0.153,0.593,0.277,0.697c0.125,0.104,0.277,0.141,0.458,0.11
			c0.181-0.03,0.313-0.115,0.396-0.254c0.083-0.139,0.095-0.388,0.035-0.749l-0.901-5.358l1.936-0.326l0.819,4.869
			C51.73,14.299,51.748,14.742,51.695,15.107z M57.693,15.72l-0.329-1.293l-1.554,0.153l-0.071,1.332l-2.079,0.205l1.089-7.677
			l2.458-0.242l2.564,7.317L57.693,15.72z M64.723,15.292l-1.484-4.601l-0.021,0.001l0.176,4.65l-1.834,0.069l-0.285-7.528
			l2.193-0.083l1.441,4.591l0.021-0.001l-0.175-4.639l1.834-0.069l0.285,7.528L64.723,15.292z M69.254,13.095
			c-0.035-0.486-0.049-1.042-0.043-1.667c0.005-0.633,0.047-1.192,0.125-1.677s0.222-0.891,0.433-1.22
			c0.21-0.329,0.498-0.577,0.861-0.747c0.364-0.169,0.837-0.251,1.422-0.246c0.344,0.003,0.662,0.052,0.953,0.146
			c0.292,0.094,0.541,0.244,0.751,0.45c0.209,0.206,0.372,0.469,0.489,0.791c0.116,0.321,0.172,0.71,0.169,1.167l-1.9-0.017
			c0.005-0.401-0.029-0.693-0.098-0.876c-0.068-0.218-0.218-0.329-0.45-0.331c-0.161-0.001-0.29,0.036-0.386,0.113
			s-0.167,0.213-0.215,0.41c-0.048,0.196-0.08,0.462-0.097,0.795c-0.018,0.334-0.028,0.754-0.032,1.261
			c-0.005,0.506-0.002,0.927,0.01,1.261c0.012,0.334,0.039,0.6,0.083,0.797s0.109,0.335,0.196,0.413
			c0.088,0.078,0.205,0.118,0.353,0.119c0.105,0.001,0.199-0.019,0.28-0.061s0.15-0.121,0.208-0.236
			c0.057-0.116,0.103-0.275,0.136-0.479c0.034-0.204,0.053-0.471,0.055-0.801l-0.695-0.006l0.011-1.329l2.532,0.022l-0.036,4.094
			l-1.329-0.012l-0.037-0.665h-0.021c-0.064,0.161-0.156,0.294-0.272,0.398c-0.117,0.104-0.248,0.186-0.393,0.245
			c-0.146,0.059-0.301,0.099-0.465,0.123c-0.166,0.023-0.333,0.034-0.502,0.032c-0.5-0.004-0.893-0.096-1.18-0.274
			c-0.287-0.178-0.502-0.434-0.647-0.766C69.378,13.989,69.288,13.58,69.254,13.095z M21.469,46.41
			c-0.246,0.404-0.5,0.822-0.885,1.188c-0.975,0.924-1.819,1.049-2.515,1.049h0c-0.187,0-0.374-0.013-0.561-0.025
			c-1.438,3.716-0.309,7.938-0.309,7.938l2.779-6.767l-0.308,7.602c3.613-4.196,3.033-9.563,2.514-11.993
			C21.894,45.715,21.685,46.056,21.469,46.41z M56.12,9.853l-0.223,3.234l1.092-0.107l-0.849-3.129L56.12,9.853z M24.576,70.928
			l1.318-7.896l1.334,7.57c3.777-7.14-0.814-13.85-0.814-13.85C20.309,64.39,24.576,70.928,24.576,70.928z M66.466,66.361
			c0.064,0.024,0.125,0.049,0.186,0.073c0.037,0.014,0.074,0.021,0.111,0.021c0.122,0,0.238-0.076,0.285-0.2
			c0.062-0.161-0.017-0.343-0.174-0.405c-0.061-0.024-0.125-0.049-0.19-0.074c-0.158-0.062-0.336,0.02-0.396,0.182
			C66.227,66.118,66.307,66.3,66.466,66.361z M38.096,77.259c-0.347-0.254-1.204-0.708-2.307-0.708c-0.46,0-0.917,0.081-1.357,0.237
			l-0.11,0.038c-0.779,0.267-1.585,0.544-2.369,1.596c-0.321,0.425-0.607,0.938-0.875,1.564c-0.04,0.093-0.128,0.154-0.229,0.159
			c-0.104,0.007-0.195-0.046-0.244-0.133c-0.109-0.194,0.128-0.936,0.479-1.496l0.24-0.371c0.782-1.228,1.5-2.547,0.97-4.005
			c-0.356-0.984-1.093-1.563-1.945-2.232l-0.33-0.261c-0.27-0.218-0.654-0.576-0.883-0.806c-0.166,0.264-0.438,0.676-0.679,0.979
			l-0.258,0.32c-0.685,0.844-1.276,1.572-1.408,2.614c-0.194,1.548,0.799,2.672,1.832,3.69c0.058,0.059,0.112,0.111,0.166,0.163
			c0.05,0.049,0.101,0.098,0.15,0.146c0.539,0.544,0.744,1.045,0.793,1.185c0.044,0.124-0.009,0.263-0.125,0.324
			c-0.116,0.061-0.258,0.03-0.335-0.076c-0.398-0.551-0.791-0.985-1.201-1.332c-0.994-0.851-1.837-0.943-2.653-1.034l-0.122-0.014
			c-1.803-0.216-3.076,0.813-3.475,1.27c0.002,0,0.004,0.001,0.007,0.001l0.128,0.027c0.512,0.117,1.29,0.367,2.19,1.181
			c0.666,0.596,0.908,1.231,1.143,1.845c0.149,0.39,0.29,0.757,0.536,1.096c0.767,1.055,1.508,1.14,2.367,1.237
			c0.448,0.052,0.913,0.104,1.404,0.297c0.462,0.182,0.944,0.761,1.23,1.16c0.191-0.451,0.534-1.123,0.942-1.403
			c0.438-0.297,0.88-0.451,1.307-0.601c0.814-0.286,1.518-0.532,2.034-1.73c0.165-0.384,0.22-0.773,0.278-1.186
			c0.093-0.651,0.188-1.323,0.706-2.053c0.692-0.982,1.366-1.389,1.876-1.633L38.096,77.259z M70.631,20.862h-1.073
			c-2.583,0-5.014,0.07-7.313,0.191L34.958,48.339c0.843,3.025,1.876,5.996,3.117,8.823l36.251-36.25
			C73.127,20.881,71.9,20.862,70.631,20.862z M70.649,55.677c0.146-0.147-0.252-0.463-0.554-0.463c-0.301,0-0.7,0.316-0.553,0.463
			c0.147,0.147,0.292-0.152,0.553-0.152C70.357,55.525,70.501,55.824,70.649,55.677z M68.904,47.193
			c0.238-0.378-2.057-1.273-3.898-1.273c-1.45,0-1.881,0.412-1.685,0.667c0.182,0.236,0.725,0.02,1.528,0.02
			C66.848,46.606,68.669,47.565,68.904,47.193z M12.048,37.834c-0.168-1.819-0.33-3.556-0.333-5.193
			c-0.004-0.074-0.004-0.143-0.007-0.217c-0.061,0.124-0.175,0.176-0.265,0.176c-0.141,0-0.257-0.101-0.291-0.25
			c-0.006-0.018-0.017-0.048-0.031-0.083c0.001,0.121-0.002,0.235,0.001,0.357c-0.042,1.552,0.056,3.201,0.164,4.924
			C11.547,37.62,11.8,37.72,12.048,37.834z M31.991,27.744l-0.428,0.237c0.259,3.375,0.67,7.024,1.294,10.756L49.11,22.483
			C38.793,24.27,33.353,26.991,31.991,27.744z M68.898,49.283c0-0.992-0.758-1.423-0.927-1.488c-0.17-0.065-0.327-0.327-0.444-0.483
			c-0.118-0.157-0.691,0.012-0.979-0.014c-0.288-0.026-0.34-0.157-0.483-0.261c-0.144-0.104-0.235,0.052-0.392,0.131
			c-0.156,0.078-0.261-0.053-0.391-0.026c-0.131,0.026-0.313-0.026-0.47-0.144c-0.157-0.118-0.366-0.013-0.47,0.17
			c-0.104,0.183-0.235,0.313-0.301,0.326c-0.065,0.013-0.483,0.039-0.483,0.575c0,0.587,0.875,1.292,1.28,1.515
			c0.404,0.222,1.175,0.666,2.023,0.666c0.85,0,0.934-0.424,1.182-0.372S68.898,50.275,68.898,49.283z M65.704,49.27
			c-0.779-0.337-1.22-0.862-1.22-0.862c0.528-0.123,0.98-0.191,1.372-0.222c-0.145,0.184-0.235,0.413-0.235,0.667
			C65.62,49,65.65,49.141,65.704,49.27z M67.736,48.852c0-0.146-0.029-0.285-0.082-0.412c0.372,0.2,0.531,0.467,0.596,0.653
			c0.045,0.127,0.013,0.164,0.006,0.182c-0.013,0.028-0.073,0.075-0.129,0.093c-0.214,0.068-0.418,0.109-0.617,0.138
			C67.649,49.324,67.736,49.099,67.736,48.852z M18.632,42.002c-0.513,0.293-1.024,0.688-1.564,1.205
			c-0.066,0.062-0.158,0.086-0.246,0.065c-0.088-0.022-0.159-0.087-0.188-0.172c-0.1-0.3,0.668-1.029,1.108-1.336l0.13-0.085
			c0.09-0.059,0.181-0.118,0.274-0.183c1.328-0.901,2.63-1.923,2.726-3.643c0.067-1.154-0.425-2.058-0.996-3.104l-0.224-0.414
			c-0.185-0.348-0.426-0.896-0.554-1.223c-0.279,0.193-0.753,0.505-1.134,0.711l-0.41,0.217c-1.056,0.556-1.969,1.036-2.555,2.034
			c-0.873,1.489-0.355,3.06,0.25,4.542c0.036,0.096,0.073,0.183,0.109,0.269l0.074,0.181c0.308,0.782,0.298,1.37,0.288,1.531
			c-0.008,0.131-0.112,0.238-0.242,0.249c-0.131,0.013-0.249-0.075-0.278-0.203c-0.168-0.739-0.376-1.35-0.638-1.869
			c-0.636-1.295-1.45-1.757-2.236-2.206l-0.124-0.07c-0.695-0.4-1.454-0.603-2.258-0.603c-0.882,0-1.557,0.242-1.864,0.399
			c0.014,0.01,0.028,0.02,0.042,0.029l0.116,0.081c0.504,0.371,1.146,0.945,1.693,2.133c0.411,0.884,0.381,1.627,0.352,2.346
			c-0.019,0.459-0.036,0.893,0.067,1.343c0.321,1.41,1.037,1.82,1.867,2.294c0.43,0.246,0.873,0.5,1.283,0.904
			c0.393,0.391,0.63,1.213,0.742,1.737c0.381-0.37,1.035-0.927,1.58-1.033c0.476-0.091,1.039-0.077,1.571-0.04
			c0.226,0.016,0.45,0.031,0.674,0.031h0c0.622,0,1.314-0.11,2.152-0.904c0.333-0.318,0.559-0.688,0.797-1.081
			c0.375-0.615,0.762-1.25,1.596-1.759c1.12-0.688,1.971-0.807,2.587-0.833l0.17-0.004c0.01,0,0.021,0,0.031,0
			c-0.305-0.563-1.49-1.982-3.542-2.115l-0.13-0.01c-0.261-0.019-0.528-0.039-0.809-0.039
			C20.362,41.374,19.596,41.445,18.632,42.002z M65.79,67.374c-0.105-0.038-0.214-0.076-0.328-0.114
			c-0.161-0.053-0.334,0.036-0.387,0.201c-0.053,0.164,0.034,0.341,0.196,0.395c0.109,0.037,0.214,0.074,0.315,0.109
			c0.034,0.013,0.068,0.018,0.102,0.018c0.127,0,0.245-0.08,0.289-0.209C66.034,67.61,65.949,67.432,65.79,67.374z M71.378,54.509
			c0.284-0.279,0.191-0.539,0.833-0.539c0.143,0,0.328-0.044,0.328-0.289c0-0.372-0.803-0.71-1.709-0.71
			c-0.524,0-0.396,0.259-0.735,0.259c-0.338,0-0.21-0.259-0.734-0.259c-0.907,0-1.709,0.338-1.709,0.71
			c0,0.245,0.186,0.289,0.328,0.289c0.641,0,0.548,0.26,0.833,0.539c0.284,0.279,0.558,0.543,1.283,0.543
			C70.819,55.053,71.094,54.788,71.378,54.509z M68.771,50.84c0-0.149-0.054-0.265-0.217-0.265c-0.163,0-0.298,0.197-0.298,0.57
			c0,0.374,0.223,0.537,0.692,0.713c0.449,0.169,0.395,0.661,1.1,0.702h0.095c0.706-0.042,0.651-0.533,1.101-0.702
			c0.467-0.176,0.69-0.339,0.69-0.713c0-0.373-0.136-0.57-0.298-0.57c-0.163,0-0.216,0.116-0.216,0.265
			c0,0.15-0.146,0.428-0.401,0.428c-0.259,0-0.333,0.156-0.408,0.23c-0.069,0.07-0.237,0.26-0.516,0.26s-0.447-0.19-0.515-0.26
			c-0.075-0.075-0.15-0.23-0.408-0.23C68.914,51.268,68.771,50.99,68.771,50.84z M58.992,66.185l-0.154-0.003
			c-0.169-0.008-0.31,0.135-0.313,0.307c-0.005,0.174,0.131,0.316,0.3,0.32l0.151,0.003c0.002,0,0.005,0,0.007,0
			c0.166,0,0.303-0.135,0.307-0.306C59.295,66.333,59.161,66.189,58.992,66.185z M60.339,66.255
			c-0.102-0.007-0.207-0.015-0.311-0.022c-0.167-0.012-0.316,0.12-0.327,0.293s0.118,0.322,0.287,0.333
			c0.102,0.007,0.204,0.015,0.304,0.022c0.008,0,0.016,0,0.023,0c0.159,0,0.294-0.124,0.306-0.288
			C60.634,66.419,60.508,66.269,60.339,66.255z M63.736,66.772c-0.247-0.057-0.501-0.11-0.753-0.16
			c-0.167-0.032-0.328,0.079-0.359,0.249c-0.032,0.171,0.077,0.335,0.243,0.367c0.245,0.048,0.492,0.1,0.731,0.156
			c0.022,0.006,0.046,0.008,0.068,0.008c0.141,0,0.267-0.099,0.299-0.244C64.004,66.98,63.901,66.813,63.736,66.772z M65.583,66.02
			c0.129,0,0.248-0.082,0.291-0.214c0.054-0.163-0.032-0.342-0.194-0.396c-0.406-0.139-0.818-0.27-1.227-0.389
			c-0.164-0.047-0.333,0.05-0.379,0.216c-0.047,0.167,0.048,0.341,0.211,0.388c0.399,0.116,0.803,0.244,1.2,0.38
			C65.518,66.015,65.551,66.02,65.583,66.02z M61.715,66.404c-0.065-0.01-0.132-0.019-0.199-0.027
			c-0.167-0.021-0.322,0.1-0.343,0.272c-0.021,0.171,0.099,0.327,0.267,0.349l0.195,0.026c0.014,0.002,0.026,0.003,0.04,0.003
			c0.152,0,0.284-0.114,0.304-0.271C62.002,66.583,61.883,66.426,61.715,66.404z M58.013,66.177c-0.001,0-0.002,0-0.002,0
			l-0.13,0.003c-0.169,0.002-0.305,0.144-0.303,0.316c0.002,0.173,0.14,0.31,0.307,0.31c0.002,0,0.002,0,0.004,0l0.126-0.001
			c0.169-0.003,0.305-0.144,0.304-0.317C58.318,66.316,58.181,66.177,58.013,66.177z M58.881,64.77
			c0.428,0.001,0.875,0.023,1.329,0.063c0.01,0,0.019,0,0.027,0c0.158,0,0.292-0.123,0.307-0.285c0.014-0.173-0.112-0.325-0.28-0.34
			c-0.471-0.041-0.935-0.064-1.381-0.065c0,0,0,0-0.001,0c-0.169,0-0.306,0.14-0.307,0.313
			C58.576,64.629,58.711,64.769,58.881,64.77z M61.723,65.029c0.523,0.09,1.065,0.204,1.609,0.337
			c0.024,0.007,0.048,0.01,0.072,0.01c0.139,0,0.263-0.096,0.298-0.239c0.041-0.168-0.061-0.338-0.226-0.379
			c-0.558-0.138-1.114-0.254-1.651-0.347c-0.168-0.027-0.327,0.088-0.355,0.258C61.443,64.839,61.556,65.001,61.723,65.029z
			 M57.063,66.203l-0.088,0.003c-0.169,0.009-0.3,0.155-0.292,0.328c0.008,0.168,0.145,0.298,0.307,0.298c0.005,0,0.009,0,0.014,0
			l0.085-0.004c0.169-0.007,0.301-0.153,0.294-0.325C57.376,66.33,57.238,66.193,57.063,66.203z M85.814,96.894l0.448,2.543
			c0.899-0.345,1.788-0.715,2.66-1.116l0.408-0.188l2.533,7.629c11.589-7.683,26.349-9.445,39.529-4.432l-2.084-11.828
			C114.573,83.896,97.856,86.755,85.814,96.894z M129.581,88.79l0.405,0.154l0.074,0.426l1.119,6.35l8.82-1.152l-5.753-4.312
			l4.451-5.644l-13.111,1.711l0.157,1.205C127.037,87.89,128.317,88.31,129.581,88.79z M50.015,97.93l0.41,0.195
			c1.244,0.588,2.519,1.115,3.816,1.588l0.433-2.455C42.743,86.95,26.06,83.92,11.274,89.326l-2.085,11.829
			c12.804-4.685,27.032-3.032,38.365,4.189L50.015,97.93z M9.361,95.79l1.163-6.596l0.077-0.432l0.411-0.151
			c1.067-0.391,2.148-0.731,3.237-1.036l0.164-1.252L1.299,84.612l4.449,5.644L0,94.567L9.361,95.79z M69.884,103.289
			c0,0,0,0-0.001,0c-6.662,0-13.356-1.469-19.389-4.247l-3.339,10.053c6.89,3.973,14.743,6.072,22.734,6.072
			c7.821,0,15.531-2.018,22.315-5.835l-3.352-10.097C82.938,101.887,76.389,103.288,69.884,103.289z"/>
	</g>
</g>
<g>
	<g>
		<path fill="#FFFFFF" d="M124.683,91.068l-0.796,1.656l-0.015-0.002l-0.184-1.829l-1.428-0.252l0.74,3.255l-0.346,1.968
			l1.302,0.229l0.346-1.967l1.808-2.808L124.683,91.068z M116.11,95.309l1.321,0.033l0.127-5.072l-1.32-0.035L116.11,95.309z
			 M107.622,95.859c-0.024-0.021-0.049-0.043-0.074-0.067c-0.02-0.023-0.04-0.061-0.061-0.11c-0.021-0.048-0.041-0.104-0.06-0.164
			c-0.019-0.062-0.036-0.127-0.052-0.196s-0.031-0.137-0.045-0.201l-0.096-0.423c-0.076-0.333-0.192-0.58-0.351-0.744
			s-0.396-0.225-0.712-0.182l-0.003-0.014c0.285-0.113,0.472-0.286,0.56-0.52c0.088-0.234,0.095-0.518,0.02-0.85
			c-0.042-0.19-0.106-0.36-0.191-0.512c-0.085-0.15-0.195-0.273-0.33-0.365c-0.136-0.094-0.298-0.153-0.485-0.178
			c-0.188-0.026-0.404-0.011-0.649,0.044l-2.018,0.456l1.119,4.949l1.29-0.291l-0.448-1.982l0.34-0.077
			c0.078-0.018,0.146-0.021,0.204-0.013s0.11,0.035,0.157,0.08c0.046,0.046,0.086,0.112,0.121,0.202s0.068,0.203,0.1,0.343
			l0.075,0.333c0.011,0.05,0.027,0.116,0.048,0.195c0.021,0.081,0.044,0.165,0.071,0.25c0.027,0.087,0.059,0.172,0.095,0.257
			c0.035,0.083,0.077,0.155,0.123,0.211l1.373-0.31l-0.016-0.07C107.682,95.898,107.646,95.88,107.622,95.859z M105.467,93.322
			c-0.063,0.128-0.188,0.214-0.372,0.257l-0.256,0.057l-0.264-1.165l0.249-0.057c0.194-0.043,0.344-0.03,0.449,0.038
			s0.182,0.206,0.229,0.415C105.542,93.043,105.529,93.194,105.467,93.322z M118.299,91.403l0.99,0.089l-0.353,3.936l1.317,0.118
			l0.352-3.936l0.991,0.088l0.1-1.117l-3.298-0.297L118.299,91.403z M102.702,94.563c-0.147-0.45-0.304-0.824-0.467-1.122
			s-0.345-0.524-0.546-0.681c-0.201-0.155-0.427-0.243-0.678-0.262c-0.251-0.021-0.536,0.022-0.856,0.127
			c-0.318,0.106-0.574,0.242-0.764,0.406s-0.32,0.369-0.389,0.614c-0.069,0.244-0.081,0.535-0.034,0.872
			c0.045,0.336,0.143,0.729,0.292,1.181c0.147,0.45,0.304,0.823,0.466,1.121c0.163,0.298,0.346,0.525,0.546,0.681
			c0.202,0.156,0.428,0.243,0.679,0.263c0.25,0.02,0.536-0.022,0.855-0.129c0.319-0.104,0.574-0.24,0.764-0.405
			c0.19-0.165,0.32-0.369,0.389-0.614c0.069-0.245,0.08-0.535,0.035-0.872C102.948,95.406,102.851,95.013,102.702,94.563z
			 M101.728,96.636c-0.04,0.066-0.107,0.116-0.201,0.148c-0.095,0.031-0.179,0.031-0.251,0c-0.073-0.03-0.145-0.104-0.215-0.222
			c-0.07-0.116-0.146-0.278-0.226-0.49c-0.079-0.211-0.172-0.478-0.279-0.802c-0.106-0.324-0.19-0.595-0.253-0.812
			c-0.061-0.216-0.098-0.394-0.109-0.528c-0.013-0.135,0.001-0.237,0.041-0.307c0.04-0.067,0.107-0.117,0.202-0.147
			c0.095-0.031,0.178-0.031,0.251-0.001c0.071,0.031,0.143,0.105,0.215,0.222c0.07,0.116,0.146,0.279,0.226,0.49
			c0.079,0.212,0.172,0.479,0.278,0.803c0.106,0.323,0.191,0.594,0.253,0.811c0.061,0.217,0.098,0.393,0.109,0.528
			C101.782,96.465,101.768,96.567,101.728,96.636z M108.604,90.734l-0.587,5.191l1.396-0.177l0.021-0.898l1.044-0.134l0.246,0.865
			l1.396-0.177l-1.866-4.879L108.604,90.734z M109.464,93.844l0.088-2.183l0.015-0.002l0.631,2.091L109.464,93.844z M95.608,94.483
			l0.766,2.956l-0.013,0.006l-1.735-2.513l-1.72,0.787l2.11,4.614l1.125-0.514l-1.572-3.438l0.013-0.007l2.212,3.146l0.867-0.396
			l-0.934-3.731l0.014-0.006l1.572,3.439l1.125-0.515l-2.111-4.614L95.608,94.483z M113.861,94.266l-0.156-3.991l-1.321,0.053
			l0.2,5.07l2.946-0.116l-0.042-1.08L113.861,94.266z M35.447,91.515l-1.299-0.245l-0.682,3.596
			c-0.045,0.242-0.111,0.397-0.197,0.466c-0.085,0.068-0.188,0.091-0.309,0.068c-0.122-0.022-0.209-0.081-0.264-0.177
			c-0.054-0.095-0.059-0.263-0.012-0.505l0.681-3.597l-1.3-0.245l-0.619,3.267c-0.065,0.35-0.083,0.648-0.053,0.896
			c0.03,0.246,0.104,0.453,0.219,0.619c0.116,0.166,0.272,0.3,0.471,0.397s0.435,0.173,0.709,0.225
			c0.27,0.051,0.516,0.067,0.739,0.05c0.223-0.019,0.419-0.083,0.587-0.196c0.168-0.112,0.312-0.278,0.431-0.498
			c0.118-0.218,0.21-0.502,0.277-0.852L35.447,91.515z M30.578,90.977c-0.128-0.15-0.288-0.266-0.477-0.346
			c-0.19-0.08-0.4-0.133-0.631-0.154c-0.392-0.038-0.714-0.011-0.968,0.08c-0.254,0.094-0.461,0.243-0.622,0.451
			c-0.161,0.209-0.281,0.473-0.363,0.794c-0.081,0.319-0.142,0.693-0.183,1.117c-0.04,0.42-0.063,0.793-0.069,1.121
			c-0.006,0.327,0.031,0.607,0.108,0.839c0.078,0.231,0.208,0.415,0.389,0.552s0.44,0.222,0.775,0.254
			c0.113,0.011,0.226,0.014,0.339,0.008c0.112-0.007,0.218-0.023,0.319-0.056c0.101-0.03,0.193-0.077,0.278-0.14
			c0.085-0.064,0.154-0.147,0.207-0.252l0.014,0.001l-0.015,0.448l0.892,0.087l0.266-2.745l-1.698-0.164l-0.086,0.891l0.467,0.046
			c-0.021,0.222-0.049,0.4-0.084,0.535s-0.074,0.238-0.119,0.313c-0.046,0.075-0.097,0.124-0.154,0.146
			c-0.057,0.022-0.121,0.031-0.192,0.023c-0.099-0.01-0.175-0.043-0.229-0.101c-0.054-0.058-0.089-0.153-0.107-0.289
			c-0.018-0.134-0.021-0.314-0.008-0.539c0.012-0.226,0.035-0.508,0.068-0.847c0.033-0.34,0.064-0.621,0.096-0.845
			c0.031-0.223,0.068-0.399,0.112-0.528c0.044-0.129,0.1-0.216,0.168-0.262c0.069-0.045,0.157-0.063,0.265-0.053
			c0.156,0.015,0.25,0.098,0.283,0.248c0.036,0.128,0.041,0.326,0.014,0.595l1.273,0.123c0.029-0.307,0.015-0.571-0.045-0.794
			C30.8,91.313,30.707,91.128,30.578,90.977z M34.659,96.522l1.354,0.383l0.373-0.818l1.012,0.288l-0.113,0.891l1.354,0.384
			l0.193-5.22l-1.6-0.453L34.659,96.522z M37.755,93.203l-0.238,2.171l-0.711-0.201l0.936-1.973L37.755,93.203z M25.25,93.46h-0.015
			l-0.843-3.129l-1.479-0.004l-0.015,5.074l1.237,0.004l0.01-3.135h0.014l0.872,3.137l1.45,0.004l0.015-5.074l-1.236-0.004
			L25.25,93.46z M19.266,90.61l-0.771,5.166l1.401-0.129l0.054-0.896l1.047-0.096l0.214,0.872l1.401-0.128l-1.691-4.941
			L19.266,90.61z M20.016,93.746l0.165-2.178l0.014-0.001l0.556,2.111L20.016,93.746z M16.694,95.016L16,91.082l-1.302,0.23
			l0.882,4.996l2.905-0.512l-0.188-1.064L16.694,95.016z M42.651,99.238l2.76,1.346l0.474-0.972l-1.572-0.766l0.442-0.907
			l1.418,0.691l0.455-0.933l-1.419-0.692l0.38-0.778l1.515,0.737l0.473-0.971l-2.703-1.317L42.651,99.238z M41.502,95.801
			l-0.321,0.837l0.438,0.168c-0.08,0.207-0.154,0.372-0.224,0.492c-0.069,0.121-0.135,0.211-0.199,0.27
			c-0.064,0.06-0.126,0.093-0.187,0.1c-0.062,0.008-0.125-0.002-0.191-0.027c-0.093-0.035-0.157-0.089-0.194-0.158
			c-0.036-0.07-0.045-0.173-0.027-0.307c0.02-0.136,0.065-0.31,0.137-0.523c0.072-0.214,0.169-0.479,0.292-0.797
			c0.123-0.319,0.229-0.582,0.318-0.788c0.09-0.207,0.173-0.367,0.249-0.479c0.077-0.113,0.154-0.183,0.232-0.207
			c0.079-0.026,0.169-0.02,0.271,0.02c0.146,0.056,0.215,0.161,0.206,0.315c0,0.132-0.048,0.324-0.145,0.576l1.193,0.459
			c0.111-0.288,0.167-0.547,0.17-0.777c0.002-0.229-0.039-0.434-0.122-0.612c-0.083-0.181-0.206-0.334-0.368-0.462
			c-0.161-0.128-0.35-0.234-0.567-0.317c-0.367-0.142-0.686-0.201-0.955-0.181c-0.27,0.021-0.509,0.11-0.72,0.269
			c-0.21,0.157-0.398,0.38-0.562,0.667c-0.163,0.288-0.322,0.63-0.475,1.027c-0.151,0.395-0.274,0.748-0.366,1.063
			c-0.093,0.314-0.133,0.594-0.12,0.838c0.012,0.243,0.088,0.455,0.228,0.636c0.139,0.18,0.365,0.331,0.679,0.451
			c0.106,0.041,0.214,0.074,0.325,0.098c0.11,0.025,0.217,0.036,0.322,0.032c0.104-0.002,0.207-0.022,0.305-0.061
			c0.099-0.039,0.188-0.101,0.267-0.188l0.013,0.006l-0.133,0.427l0.835,0.322l0.99-2.574L41.502,95.801z M72.851,107.166
			c-0.129-0.266-0.318-0.475-0.565-0.628c-0.248-0.152-0.592-0.224-1.029-0.211l-2.193,0.059l0.156,5.797l2.193-0.059
			c0.438-0.012,0.776-0.101,1.017-0.267c0.238-0.166,0.415-0.386,0.53-0.656c0.114-0.271,0.18-0.582,0.198-0.933
			c0.018-0.35,0.021-0.714,0.011-1.093c-0.01-0.378-0.033-0.742-0.07-1.091C73.063,107.736,72.979,107.431,72.851,107.166z
			 M71.614,110.16c-0.007,0.239-0.032,0.423-0.074,0.555c-0.043,0.131-0.106,0.218-0.192,0.262c-0.086,0.042-0.201,0.065-0.348,0.07
			l-0.3,0.008l-0.098-3.622l0.3-0.008c0.146-0.004,0.263,0.013,0.351,0.052c0.088,0.038,0.155,0.122,0.206,0.25
			c0.05,0.129,0.084,0.313,0.104,0.55c0.02,0.238,0.035,0.552,0.046,0.942C71.62,109.608,71.621,109.922,71.614,110.16z
			 M78.32,107.037c-0.13-0.365-0.295-0.654-0.494-0.866c-0.198-0.212-0.438-0.352-0.717-0.419c-0.28-0.067-0.61-0.07-0.989-0.009
			c-0.38,0.061-0.691,0.167-0.936,0.319c-0.244,0.151-0.428,0.359-0.549,0.623c-0.123,0.264-0.188,0.59-0.196,0.979
			c-0.009,0.388,0.03,0.849,0.115,1.384c0.087,0.534,0.194,0.984,0.325,1.35c0.13,0.366,0.295,0.654,0.493,0.867
			c0.2,0.212,0.438,0.352,0.719,0.419c0.278,0.067,0.608,0.07,0.988,0.009c0.38-0.061,0.691-0.167,0.936-0.319
			c0.245-0.151,0.427-0.36,0.55-0.624c0.121-0.264,0.187-0.589,0.195-0.978c0.009-0.388-0.029-0.85-0.116-1.384
			C78.559,107.854,78.45,107.403,78.32,107.037z M77.273,110.214c-0.011,0.154-0.045,0.268-0.103,0.337s-0.142,0.113-0.254,0.132
			c-0.112,0.018-0.207,0.003-0.283-0.045s-0.145-0.145-0.203-0.289c-0.059-0.143-0.113-0.342-0.166-0.594
			c-0.051-0.252-0.108-0.571-0.17-0.955c-0.062-0.386-0.108-0.705-0.139-0.962c-0.03-0.255-0.04-0.461-0.029-0.616
			s0.044-0.268,0.102-0.337s0.143-0.113,0.255-0.132s0.206-0.003,0.282,0.045c0.077,0.049,0.145,0.145,0.203,0.288
			c0.059,0.145,0.114,0.342,0.166,0.595c0.052,0.252,0.108,0.571,0.17,0.955c0.063,0.385,0.109,0.705,0.14,0.961
			C77.274,109.854,77.284,110.059,77.273,110.214z M82.375,104.309l0.473,3.458l-0.015,0.005l-1.633-3.084l-2.058,0.663l1.778,5.52
			l1.346-0.434l-1.325-4.113l0.016-0.004l2.09,3.866l1.036-0.333l-0.559-4.36l0.015-0.005l1.325,4.113l1.346-0.434l-1.779-5.521
			L82.375,104.309z M59.227,104.849l-1.676,3.669l-0.016-0.006l0.731-3.989l-1.292-0.439l-1.807,3.623l-0.016-0.006l0.861-3.945
			l-1.384-0.471l-0.93,5.811l1.569,0.534l1.732-3.53l0.016,0.006l-0.779,3.853l1.569,0.534l2.806-5.171L59.227,104.849z
			 M60.303,111.08l1.479,0.306l1.172-5.681l-1.479-0.305L60.303,111.08z M65.987,106.023c-0.636-0.066-1.125,0.037-1.47,0.313
			c-0.344,0.274-0.547,0.705-0.608,1.292c-0.035,0.34-0.006,0.619,0.088,0.842s0.222,0.407,0.383,0.555s0.34,0.272,0.537,0.374
			c0.196,0.103,0.377,0.202,0.544,0.298s0.302,0.206,0.407,0.328c0.104,0.123,0.147,0.278,0.127,0.467
			c-0.016,0.156-0.071,0.283-0.166,0.383c-0.095,0.099-0.22,0.141-0.376,0.124c-0.146-0.016-0.259-0.077-0.34-0.187
			c-0.081-0.108-0.109-0.288-0.083-0.535l0.014-0.138l-1.454-0.151l-0.021,0.202c-0.031,0.302-0.015,0.559,0.05,0.772
			s0.173,0.395,0.324,0.541s0.343,0.26,0.577,0.341c0.233,0.082,0.506,0.139,0.819,0.171c0.663,0.069,1.184-0.021,1.563-0.27
			s0.602-0.681,0.666-1.294c0.037-0.351,0.005-0.642-0.093-0.871c-0.099-0.231-0.232-0.424-0.401-0.577
			c-0.169-0.154-0.354-0.283-0.556-0.389s-0.39-0.209-0.564-0.309s-0.317-0.211-0.426-0.334c-0.11-0.122-0.155-0.278-0.135-0.468
			c0.013-0.129,0.063-0.242,0.149-0.34c0.087-0.096,0.21-0.137,0.372-0.12c0.146,0.016,0.247,0.087,0.304,0.216
			c0.058,0.128,0.077,0.279,0.059,0.451l-0.014,0.137l1.406,0.146c0.064-0.619-0.035-1.086-0.299-1.398
			C67.105,106.282,66.645,106.092,65.987,106.023z"/>
	</g>
</g>
<g>
</g>
<g>
</g>
<g>
</g>
<g>
</g>
<g>
</g>
<g>
</g>
<g>
</g>
<g>
</g>
<g>
</g>
<g>
</g>
<g>
</g>
<g>
</g>
<g>
</g>
<g>
</g>
<g>
</g>
</svg>
